# xmcd CD database file
#
# Track frame offsets:
#	150
#	14497
#	26719
#	40526
#	52174
#	63317
#	76699
#	88834
#	102867
#	119457
#	135389
#
# Disc length: 1980 seconds
#
# Revision: 0
# Processed by: cddbd v1.5.2PL0 Copyright (c) Steve Scherf et al.
# Submitted via: CDex 1.79
#
DISCID=8807ba0b
DTITLE=Various Artist - Rhinestone Cowboy [CD1]
DYEAR=2015
DGENRE=Country
TTITLE0=Glenn Campbell \ Rhinestone Cowboy
TTITLE1=Charlie Rich \ Behind Closed Doors
TTITLE2=Barbara Fairchild \ Teddy Bear Song
TTITLE3=Charlie Louvin and Tanya Tucker \ Back In Harmony
TTITLE4=Moe Bandy \ Back In The Saddle Again
TTITLE5=Dickey Lee \ 9,999,999 Years
TTITLE6=Freddy Fender \Wasted Days and Wasted Nights
TTITLE7=Margo Smith \ It Only Hurts For A Little While
TTITLE8=Ferlin Husky \ For The Good Times
TTITLE9=Navel Felts \ Reconsider Me
TTITLE10=Johnny Carver \ Afternoon Delight
EXTD=YEAR: 2015
EXTT0=
EXTT1=
EXTT2=
EXTT3=
EXTT4=
EXTT5=
EXTT6=
EXTT7=
EXTT8=
EXTT9=
EXTT10=
PLAYORDER=
